PathFileType	4	(X/Y/Z)	SUBJ26_2_walk_RCNL2025.trc
DataRate	CameraRate	NumFrames	NumMarkers	Units	OrigDataRate	OrigDataStartFrame	OrigNumFrames
100	100	14	25	mm	100	128	341
Frame#	Time	R_Shoulder			L_Shoulder			C7			J_Notch			R_Elbow			L_Elbow			R_Wrist			L_Wrist			R_Asis			L_Asis			Sacral			Thoracic			Sternum			R_Thigh_Lateral			R_Knee_Lateral			R_Shank_Lateral			R_Ankle_Lateral			R_Heel			R_Toe			L_Thigh_Lateral			L_Knee_Lateral			L_Shank_Lateral			L_Ankle_Lateral			L_Heel			L_Toe		
		X1	Y1	Z1	X2	Y2	Z2	X3	Y3	Z3	X4	Y4	Z4	X5	Y5	Z5	X6	Y6	Z6	X7	Y7	Z7	X8	Y8	Z8	X9	Y9	Z9	X10	Y10	Z10	X11	Y11	Z11	X12	Y12	Z12	X13	Y13	Z13	X14	Y14	Z14	X15	Y15	Z15	X16	Y16	Z16	X17	Y17	Z17	X18	Y18	Z18	X19	Y19	Z19	X20	Y20	Z20	X21	Y21	Z21	X22	Y22	Z22	X23	Y23	Z23	X24	Y24	Z24	X25	Y25	Z25
128	1.27000000	23.600044	1285.951050	17.982155	2.873323	1306.225830	-316.313477	-71.613052	1358.479980	-132.667358	74.805000	1260.757324	-159.098465	-63.401634	964.084229	94.334770	-3.924478	993.497864	-439.043640	-17.566677	716.728577	61.469657	191.754448	841.302673	-440.418533	67.440628	884.354736	-43.508793	2.024338	895.095093	-338.625702	-166.106689	900.670349	-140.880157	-148.828873	1013.511108	-147.297470	122.609390	1003.973999	-165.926239	72.705208	560.747925	-3.703378	146.692230	435.934235	-73.542145	157.745071	284.822815	-38.540417	169.431854	53.362633	-115.363174	112.093254	38.912685	-171.424255	287.523804	44.653172	-149.010574	-120.245567	592.296204	-365.488403	-164.471588	436.414368	-279.239166	-280.634521	292.470581	-335.038391	-401.288208	129.034821	-232.871063	-454.797638	155.861221	-178.076126	-321.544647	45.476978	-184.000320
129	1.28000000	37.573746	1287.521606	18.537336	16.972731	1309.156860	-315.373352	-57.755775	1360.460083	-131.678055	88.675652	1263.099854	-158.262283	-46.596565	965.107117	94.037277	6.538021	995.932617	-438.057343	-0.300949	717.779236	62.327795	199.824356	840.844879	-439.646820	81.146996	887.950928	-42.757309	17.130951	895.523560	-337.540588	-152.304199	902.394836	-142.344818	-134.915649	1015.494141	-148.467865	136.584351	1006.414856	-166.338181	86.648720	564.059448	-1.871177	156.289978	436.741882	-73.040581	164.810699	284.886292	-37.572685	169.891708	53.258289	-114.960869	112.159615	39.265171	-170.764771	287.811981	43.826752	-149.034286	-101.304703	591.247314	-367.368256	-142.576355	434.888855	-282.569275	-263.330841	296.089325	-338.427185	-389.434753	136.882126	-236.379517	-440.140839	167.809006	-181.574112	-316.656891	46.926468	-185.403320
130	1.29000000	51.415585	1289.394165	19.001776	30.931364	1312.199463	-314.519257	-44.046997	1362.520630	-130.821243	102.427864	1265.590820	-157.535873	-29.815180	966.451599	93.838493	16.855776	998.441162	-437.039276	17.370898	719.246918	63.238283	207.377739	840.055359	-438.938675	94.769737	891.849609	-42.014805	31.831415	895.993958	-336.415741	-138.688019	904.300903	-143.568283	-121.152870	1017.627563	-149.474564	150.234879	1008.898254	-166.876907	99.100410	567.013550	-0.125375	164.404282	437.224915	-72.357391	170.343475	284.859497	-36.540745	170.142685	53.153828	-114.534981	112.144470	39.491692	-170.165359	287.929138	43.403591	-148.919968	-82.134422	590.126465	-369.285614	-119.787392	433.179810	-286.115692	-244.823410	299.851807	-342.034302	-375.754150	144.614120	-240.157944	-423.798035	179.337784	-185.573929	-309.652832	49.182343	-187.208801
131	1.30000000	65.123070	1291.477661	19.368361	44.694977	1315.253296	-313.787628	-30.483999	1364.600586	-130.095108	116.045364	1268.148193	-156.946671	-13.111456	968.038574	93.766151	27.039606	1000.929077	-436.014435	35.418571	721.055878	64.168997	214.486618	838.951385	-438.309677	108.320366	895.877625	-41.352524	46.068054	896.472717	-335.356476	-125.251083	906.347778	-144.452911	-107.558487	1019.845032	-150.304871	163.594360	1011.318420	-167.554169	109.910858	569.523499	1.355134	171.113220	437.398987	-71.546669	174.533173	284.795715	-35.548504	170.232864	53.049301	-114.117546	112.063095	39.618511	-169.641022	287.923981	43.235893	-148.725876	-62.895668	589.030518	-371.195557	-96.297943	431.432617	-289.819153	-225.157196	303.653351	-345.837341	-360.181335	152.029678	-244.108459	-405.944000	190.071152	-189.989258	-300.006897	52.268768	-189.476486
132	1.31000000	78.704933	1293.677002	19.629446	58.228733	1318.229736	-313.211304	-17.053146	1366.658325	-129.498917	129.520050	1270.692749	-156.514084	3.478625	969.784729	93.840408	37.101631	1003.313171	-435.006958	53.795298	723.120941	65.089521	221.216286	837.546661	-437.774139	121.797287	899.847351	-40.832626	59.805000	896.946655	-334.472626	-111.977982	908.487549	-144.934082	-94.137161	1022.089539	-150.953842	176.705826	1013.589111	-168.361267	119.147064	571.584412	2.497724	176.610138	437.314209	-70.680519	177.652222	284.723389	-34.688770	170.207535	52.946770	-113.734184	111.933441	39.675297	-169.199005	287.838013	43.209923	-148.498550	-43.773472	588.106567	-373.048767	-72.293678	429.846497	-293.604797	-204.353668	307.363617	-349.791168	-342.702118	158.940842	-248.125824	-386.713470	199.673141	-194.622681	-287.341492	56.040802	-192.250198
133	1.32000000	92.177162	1295.902344	19.779467	71.517029	1321.055908	-312.815613	-3.732540	1368.670898	-129.035034	142.851517	1273.156006	-156.249268	19.937780	971.612122	94.069847	47.058338	1005.530945	-434.038696	72.445408	725.359314	65.973967	227.618523	835.848663	-437.341980	135.196854	903.574829	-40.499699	73.029739	897.429077	-333.861084	-98.844505	910.669617	-144.983459	-80.878799	1024.314453	-151.420563	189.614502	1015.652832	-169.272324	127.033768	573.262207	3.319130	181.161972	437.048492	-69.848145	180.005936	284.656616	-34.034256	170.108215	52.848736	-113.406975	111.775124	39.690758	-168.842987	287.707672	43.245251	-148.276550	-24.938492	587.519470	-374.797272	-47.935829	428.643463	-297.388885	-182.420502	310.857178	-353.824371	-323.353088	165.163956	-252.116013	-366.181610	207.862228	-199.216125	-271.489105	60.198170	-195.549149
134	1.33000000	105.560127	1298.077637	19.815645	84.561028	1323.677368	-312.614197	9.503598	1370.630127	-128.708313	156.046448	1275.485352	-156.155548	36.265274	973.456787	94.449493	56.930187	1007.544006	-433.127197	91.315910	727.702942	66.804089	233.727074	833.862488	-437.014359	148.520233	906.901428	-40.375164	85.753929	897.959473	-333.588165	-85.820251	912.846741	-144.609009	-67.762390	1026.484009	-151.706284	202.361313	1017.487671	-170.249969	133.891937	574.665588	3.887967	185.060074	436.692383	-69.144012	181.894638	284.601379	-33.627197	169.971558	52.758469	-113.152420	111.607376	39.689655	-168.572861	287.564148	43.289261	-148.091492	-6.502701	587.402588	-376.397766	-23.348297	428.019135	-301.096130	-159.380844	314.041840	-357.844025	-302.207092	170.517044	-256.003418	-344.383392	214.422897	-203.532532	-252.481781	64.360085	-199.355850
135	1.34000000	118.876572	1300.146851	19.738358	97.374687	1326.059204	-312.605865	22.678265	1372.539307	-128.522873	169.117294	1277.645508	-156.228180	52.471817	975.273132	94.962425	66.739639	1009.336548	-432.283264	110.364742	730.106903	67.570963	239.558105	831.595245	-436.784302	161.773438	909.712402	-40.457111	98.013023	898.595459	-333.679810	-72.876839	914.981201	-143.851349	-54.762707	1028.574219	-151.812546	214.977249	1019.107849	-171.251678	140.087875	575.903259	4.284688	188.569260	436.328888	-68.647552	183.570877	284.557892	-33.467312	169.827194	52.679829	-112.977097	111.447052	39.690834	-168.382477	287.431671	43.311218	-147.964630	11.514808	587.814331	-377.814514	1.391600	428.092621	-304.676666	-135.303162	316.864166	-361.748260	-279.357666	174.831589	-259.732819	-321.343964	219.214111	-207.418808	-230.485535	68.159760	-203.614410
136	1.35000000	132.150345	1302.076172	19.552271	109.980156	1328.182495	-312.774445	35.806900	1374.404663	-128.476974	182.080109	1279.616455	-156.454269	68.573486	977.033691	95.584419	76.509842	1010.908875	-431.510406	129.559837	732.549774	68.273785	245.116310	829.060669	-436.641617	174.962524	911.947754	-40.725750	109.863579	899.399475	-334.119904	-59.997345	917.049988	-142.777405	-41.856087	1030.572266	-151.742188	227.482452	1020.557068	-172.235641	145.982254	577.050110	4.567654	191.894394	436.018982	-68.404167	185.207184	284.524323	-33.509205	169.695343	52.615303	-112.875984	111.306717	39.706848	-168.258469	287.326660	43.296799	-147.904053	29.192738	588.726807	-379.024628	26.250917	428.880066	-308.106537	-110.297569	319.281036	-365.445251	-254.909897	177.971268	-263.268555	-297.099701	222.165009	-210.818207	-205.727249	71.313690	-208.242416
137	1.36000000	145.405304	1303.851440	19.267178	122.403915	1330.041870	-313.092499	48.896736	1376.227173	-128.558868	194.952332	1281.391846	-156.813583	84.587334	978.727905	96.289497	86.263878	1012.271606	-430.806061	148.871269	735.028290	68.916418	250.401947	826.282898	-436.575089	188.087891	913.604309	-41.151474	121.379257	900.424133	-334.853516	-47.178928	919.043701	-141.474442	-29.023722	1032.472778	-151.503616	239.890778	1021.895447	-173.164658	151.885239	578.140198	4.757645	195.174850	435.796265	-68.416229	186.902115	284.498444	-33.680454	169.586807	52.564293	-112.834976	111.193581	39.744968	-168.182205	287.257965	43.243179	-147.906097	46.673759	590.048340	-380.021881	51.221081	430.309509	-311.371643	-84.479713	321.223572	-368.871124	-228.977310	179.845398	-266.591797	-271.704163	223.259888	-213.743881	-178.449661	73.649651	-213.149261
138	1.37000000	158.664368	1305.474731	18.897673	134.674728	1331.642700	-313.526428	61.948692	1377.996216	-128.746094	207.751175	1282.974609	-157.281265	100.529526	980.357849	97.054199	96.022011	1013.441589	-430.165436	168.265961	737.550323	69.503633	255.414642	823.297699	-436.570007	201.140778	914.730408	-41.701305	132.647903	901.701477	-335.795593	-34.428005	920.959961	-140.045486	-16.252951	1034.271240	-151.115280	252.214401	1023.182434	-174.008896	158.036560	579.179077	4.850618	198.491760	435.668579	-68.647774	188.706146	284.473511	-33.909363	169.505768	52.523685	-112.835732	111.109619	39.808357	-168.133789	287.228149	43.154503	-147.960281	64.111847	591.655579	-380.814850	76.287483	432.262238	-314.449890	-57.950699	322.609344	-372.000549	-201.678879	180.413010	-269.698914	-245.221741	222.524826	-216.246078	-148.894348	75.101761	-218.253677
139	1.38000000	171.948654	1306.957886	18.461454	146.823059	1332.998779	-314.039795	74.959740	1379.689453	-129.008026	220.491745	1284.372681	-157.831879	116.413437	981.932434	97.859535	105.797203	1014.438416	-429.585236	187.712158	740.127441	70.038954	260.155220	820.149963	-436.606094	214.103134	915.412292	-42.341042	143.770432	903.237549	-336.842712	-21.753515	922.794495	-138.603699	-3.536777	1035.959839	-150.606186	264.465515	1024.460938	-174.748459	164.607056	580.158386	4.844163	201.875153	435.622650	-69.040901	190.634583	284.437164	-34.143684	169.453110	52.490162	-112.860863	111.052536	39.896740	-168.096008	287.235504	43.038498	-148.054871	81.634163	593.417969	-381.425812	101.405144	434.608643	-317.306000	-30.817133	323.400116	-374.843475	-173.132950	179.681534	-272.601990	-217.716110	220.020004	-218.391724	-117.296059	75.689049	-223.492874
140	1.39000000	185.277008	1308.317017	17.976189	158.881180	1334.128052	-314.594849	87.926262	1381.275391	-129.309464	233.185928	1285.592163	-158.443146	132.246414	983.460571	98.691284	115.591873	1015.282715	-429.065033	207.187096	742.768677	70.524191	264.627823	816.889313	-436.658997	226.951111	915.755798	-43.032753	154.859512	905.011169	-337.885712	-9.162809	924.531555	-137.264206	9.127936	1037.524780	-150.012833	276.656464	1025.746338	-175.375458	171.702209	581.067993	4.752298	205.312805	435.632019	-69.535889	192.667984	284.380005	-34.355320	169.427750	52.461784	-112.897682	111.017082	40.006878	-168.056458	287.276886	42.905338	-148.180267	99.327858	595.216248	-381.892273	126.493881	437.224854	-319.899139	-3.215616	323.633423	-377.429596	-143.449188	177.701752	-275.328827	-189.239822	215.834641	-220.254883	-83.878906	75.490204	-228.821472
141	1.40000000	198.664536	1309.564941	17.455919	170.880142	1335.047241	-315.156097	100.849121	1382.717285	-129.614365	245.842224	1286.633057	-159.098740	148.027924	984.945312	99.540459	125.395988	1015.993042	-428.605804	226.676109	745.476227	70.959614	268.841209	813.567017	-436.704147	239.661850	915.868042	-43.731121	166.033585	906.973938	-338.822235	3.339386	926.138306	-136.135025	21.742455	1038.946167	-149.375259	288.799133	1027.021606	-175.894516	179.360245	581.900330	4.600745	208.763153	435.667267	-70.085129	194.753586	284.305267	-34.535923	169.427475	52.437653	-112.939529	110.997459	40.133480	-168.008636	287.350281	42.768154	-148.329880	117.239693	596.957458	-382.265259	151.452942	439.998901	-322.196075	24.695011	323.393372	-379.790527	-112.721581	174.557251	-277.918457	-159.826813	210.081665	-221.911667	-48.854969	74.619621	-234.205261
